<?xml version="1.0" standalone="no"?>
<!DOCTYPE svg PUBLIC "-//W3C//DTD SVG 20010904//EN"
 "http://www.w3.org/TR/2001/REC-SVG-20010904/DTD/svg10.dtd">
<svg version="1.0" xmlns="http://www.w3.org/2000/svg"
 width="512.000000pt" height="512.000000pt" viewBox="0 0 512.000000 512.000000"
 preserveAspectRatio="xMidYMid meet">
<metadata>
Created by potrace 1.14, written by Peter Selinger 2001-2017
</metadata>
<g transform="translate(0.000000,512.000000) scale(0.100000,-0.100000)"
fill="#000000" stroke="none">
<path d="M3381 5021 c-8 -5 -9 -11 -3 -15 5 -3 12 1 16 9 6 17 6 18 -13 6z"/>
<path d="M3350 5015 c0 -5 5 -17 10 -25 5 -8 10 -10 10 -5 0 6 -5 17 -10 25
-5 8 -10 11 -10 5z"/>
<path d="M3405 5010 c-3 -6 3 -22 14 -36 11 -14 19 -31 17 -37 -1 -7 -1 -9 2
-4 2 4 13 12 23 18 28 14 96 -26 78 -47 -16 -19 -23 -18 -15 3 4 10 4 14 0 11
-3 -4 -13 -1 -21 7 -18 18 -29 19 -43 3 -41 -49 -49 -62 -44 -67 4 -3 9 0 11
7 3 6 10 9 15 6 6 -4 8 -2 5 3 -4 6 2 22 13 34 l20 24 19 -23 c12 -13 17 -30
14 -40 -4 -13 -2 -12 10 3 8 11 19 16 23 12 5 -4 2 -13 -6 -18 -13 -9 -13 -10
1 -6 24 8 18 -49 -7 -69 -15 -13 -13 -12 9 1 38 22 45 13 10 -15 -26 -20 -28
-21 -42 -3 -12 16 -13 16 -8 1 4 -11 0 -21 -11 -27 -9 -6 -12 -11 -5 -11 6 0
15 5 18 10 4 6 11 8 16 4 6 -3 22 5 36 17 23 23 25 23 38 6 11 -16 12 -15 12
10 0 16 -2 23 -4 16 -5 -14 -43 21 -43 40 0 8 4 7 10 -3 15 -24 12 -2 -5 31
-15 29 -13 49 5 49 5 0 7 -7 4 -15 -4 -8 -1 -15 5 -15 6 0 10 -3 10 -7 -3 -17
1 -33 9 -32 18 3 32 -2 32 -12 0 -6 -9 -8 -20 -4 -12 4 -20 2 -20 -5 0 -6 4
-9 9 -6 4 3 16 -3 26 -14 10 -12 13 -20 7 -20 -7 0 -12 -5 -12 -11 0 -5 4 -8
9 -4 5 3 11 -3 14 -12 2 -10 4 -3 4 15 0 17 -4 32 -9 32 -5 0 -7 9 -3 19 4 15
-1 24 -22 35 -15 8 -21 15 -13 16 13 0 13 1 0 10 -8 5 -15 15 -15 22 0 7 -8
13 -18 13 -10 0 -22 6 -26 13 -5 8 -11 13 -15 13 -17 -2 -20 0 -9 7 9 5 6 12
-10 21 -19 13 -21 12 -10 -1 11 -12 8 -15 -17 -15 -29 0 -29 1 -13 19 9 10 13
21 10 25 -4 3 -7 2 -7 -4 0 -5 -13 -10 -30 -10 -31 0 -40 11 -17 20 9 4 9 6 0
6 -6 1 -15 -4 -18 -9z m45 -30 c0 -5 -4 -10 -10 -10 -5 0 -10 5 -10 10 0 6 5
10 10 10 6 0 10 -4 10 -10z"/>
<path d="M3337 4991 c2 -2 -2 -10 -9 -18 -9 -11 -5 -20 15 -41 35 -36 35 -53
1 -21 -26 23 -26 23 -13 2 8 -13 17 -23 22 -23 4 0 5 -6 1 -12 -4 -7 5 -2 19
11 15 14 27 27 27 30 0 3 -15 22 -33 41 -17 19 -31 33 -30 31z m32 -47 c30
-35 17 -45 -14 -11 -14 14 -25 29 -25 32 0 13 18 3 39 -21z"/>
<path d="M3380 4982 c0 -15 39 -59 40 -44 0 6 -5 12 -11 12 -5 0 -8 3 -6 8 3
4 -1 13 -9 20 -8 7 -14 9 -14 4z"/>
<path d="M3410 4913 c0 -4 -11 -21 -25 -37 -19 -22 -22 -32 -14 -43 6 -7 16
-13 22 -13 6 0 3 6 -6 13 -16 11 -15 15 12 44 16 18 25 35 20 38 -5 4 -9 3 -9
-2z"/>
<path d="M3467 4904 c-10 -11 -8 -34 3 -34 5 0 7 7 4 15 -7 17 11 21 19 5 3
-6 4 -5 3 2 -3 14 -20 21 -29 12z"/>
<path d="M3487 4863 c-9 -15 28 -33 44 -21 11 8 11 9 -3 4 -10 -3 -21 1 -26
11 -5 8 -12 11 -15 6z"/>
<path d="M3450 4851 c0 -5 -15 -7 -32 -5 -26 3 -29 2 -13 -5 11 -5 16 -10 10
-11 -5 0 -2 -5 8 -11 9 -6 14 -15 11 -21 -4 -7 -2 -8 4 -4 7 4 12 2 12 -3 0
-6 5 -11 12 -11 9 0 9 3 1 11 -9 9 -8 15 2 25 19 20 26 17 22 -8 -2 -13 -2
-17 0 -10 3 7 10 12 16 11 25 -3 37 1 37 13 0 9 -3 9 -12 0 -9 -9 -16 -8 -30
5 -17 15 -19 15 -36 0 -10 -10 -22 -14 -25 -10 -10 10 -8 25 2 19 5 -3 14 1
21 9 9 10 9 15 1 15 -6 0 -11 -4 -11 -9z"/>
<path d="M3405 4790 c4 -11 2 -20 -4 -20 -6 0 -11 -5 -11 -11 0 -8 5 -7 15 1
21 17 31 5 12 -14 -8 -8 -17 -13 -19 -11 -3 3 -5 -2 -5 -10 0 -21 6 -19 29 11
11 14 23 23 26 20 3 -3 -3 -15 -13 -26 -10 -11 -15 -20 -12 -20 10 0 48 40 40
41 -5 0 1 5 12 10 19 9 19 9 -2 5 -25 -4 -66 21 -58 35 4 5 1 9 -5 9 -7 0 -9
-8 -5 -20z"/>
<path d="M3660 4779 c0 -5 5 -7 10 -4 6 3 10 8 10 11 0 2 -4 4 -10 4 -5 0 -10
-5 -10 -11z"/>
<path d="M3586 4745 c9 -14 12 -25 8 -25 -5 0 -1 -5 9 -11 10 -6 21 -8 24 -5
4 3 1 6 -6 6 -7 0 -9 5 -6 10 3 6 1 10 -6 10 -7 0 -10 3 -6 6 3 4 0 13 -8 20
-22 22 -27 16 -9 -11z"/>
<path d="M3664 4749 c-17 -19 -19 -19 -31 -3 -7 10 -13 14 -13 9 0 -4 11 -23
25 -41 23 -31 24 -34 8 -43 -10 -6 -13 -11 -7 -11 6 0 17 7 24 15 7 8 17 15
23 15 5 0 2 -9 -8 -20 -10 -11 -15 -23 -12 -26 10 -10 -12 -44 -29 -44 -14 0
-14 2 0 16 9 8 16 19 16 24 0 5 -10 -1 -23 -13 -18 -18 -20 -24 -8 -31 9 -5
21 -4 33 3 20 12 25 2 6 -17 -9 -9 -8 -16 5 -30 26 -29 20 -38 -8 -12 -13 12
-22 27 -19 31 3 5 0 9 -5 9 -14 0 -14 -13 1 -28 6 -6 8 -15 4 -19 -4 -4 -12
-1 -17 7 -9 13 -10 13 -6 0 2 -8 14 -14 26 -13 25 3 26 -3 6 -23 -8 -8 -11
-22 -8 -32 6 -15 5 -15 -10 -3 -15 12 -17 12 -11 -3 8 -21 29 -15 29 8 0 24
31 45 58 40 21 -4 21 -4 2 5 -11 5 -15 10 -10 11 6 0 2 5 -8 11 -9 6 -14 15
-11 21 4 7 2 8 -4 4 -7 -4 -12 -3 -12 3 0 5 4 12 9 15 11 7 33 -18 24 -27 -3
-4 -1 -7 6 -7 8 0 10 7 6 20 -4 11 -2 20 4 20 6 0 11 -4 11 -10 0 -5 5 -10 11
-10 8 0 7 5 -1 15 -7 9 -21 13 -31 10 -23 -8 -24 1 -4 22 8 8 13 19 10 24 -4
5 -1 9 6 9 7 0 10 3 7 6 -4 3 -16 1 -27 -6 -25 -13 -29 4 -5 18 20 11 9 36
-12 28 -8 -3 -14 -2 -14 3 0 16 13 20 34 9 18 -10 19 -9 9 4 -7 8 -9 19 -5 23
4 5 -6 1 -21 -9 -32 -20 -47 -15 -24 8 8 8 17 13 19 11 3 -3 5 2 5 10 0 19 0
19 -23 -6z m36 -124 c-7 -9 -15 -13 -17 -11 -7 7 7 26 19 26 6 0 6 -6 -2 -15z"/>
<path d="M3545 4739 c-4 -6 -4 -13 -1 -16 3 -4 6 -1 6 6 0 7 5 9 10 6 6 -4 8
-11 5 -16 -4 -5 -1 -9 4 -9 13 0 13 3 5 24 -7 18 -20 21 -29 5z"/>
<path d="M3489 4718 c-17 -18 -21 -19 -16 -5 8 20 -8 23 -16 3 -10 -26 22 -26
47 -1 14 14 21 25 16 25 -5 0 -19 -10 -31 -22z"/>
<path d="M3506 4695 c-9 -14 -12 -25 -6 -25 5 0 13 0 17 0 5 0 9 11 10 25 2
31 -1 31 -21 0z"/>
<path d="M3540 4700 c0 -5 5 -10 11 -10 5 0 7 5 4 10 -3 6 -8 10 -11 10 -2 0
-4 -4 -4 -10z"/>
<path d="M3387 4684 c5 -14 3 -16 -12 -10 -18 7 -18 6 1 -15 14 -17 15 -21 4
-17 -9 3 -25 -1 -35 -9 -19 -14 -19 -14 5 -9 14 2 33 7 42 11 10 4 24 -1 37
-14 l21 -21 -4 26 c-4 21 -2 25 12 19 13 -5 14 -4 5 6 -10 10 -16 9 -28 -1
-23 -19 -29 -6 -6 14 17 16 20 15 42 -3 22 -18 22 -20 7 -26 -10 -4 -18 -11
-18 -17 0 -5 4 -7 9 -3 5 3 12 -3 15 -12 3 -11 4 -9 3 6 -1 13 4 26 11 28 8 3
10 -1 5 -13 -3 -10 7 -3 24 14 32 34 49 41 40 18 -4 -11 -1 -13 10 -9 9 4 14
2 10 -3 -3 -6 -3 -15 1 -21 5 -8 15 -5 32 9 15 12 18 18 8 14 -9 -2 -29 4 -43
16 l-26 20 -23 -21 -23 -22 -31 26 c-27 22 -34 24 -51 13 -12 -7 -21 -16 -21
-20 0 -5 -5 -8 -11 -8 -6 0 -8 8 -4 19 3 11 1 22 -4 26 -7 4 -8 -1 -4 -11z"/>
<path d="M3410 4689 c0 -5 5 -7 10 -4 6 3 10 8 10 11 0 2 -4 4 -10 4 -5 0 -10
-5 -10 -11z"/>
<path d="M3580 4688 c8 -9 18 -14 23 -11 4 2 7 -1 7 -6 0 -6 5 -11 11 -11 5 0
8 4 4 9 -3 5 3 12 12 14 11 3 9 5 -7 5 -14 -1 -34 3 -45 8 -17 7 -18 6 -5 -8z"/>
<path d="M3535 4630 c-3 -5 -1 -10 4 -10 6 0 11 5 11 10 0 6 -2 10 -4 10 -3 0
-8 -4 -11 -10z"/>
<path d="M3555 4609 c-5 -15 -3 -26 7 -33 8 -6 15 -15 15 -21 0 -5 7 -11 16
-13 9 -2 17 1 17 7 0 6 -7 7 -17 4 -11 -4 -14 -3 -9 5 4 7 1 15 -8 18 -9 3
-16 14 -16 23 0 10 3 12 8 5 11 -17 52 -36 52 -24 0 5 -6 10 -14 10 -8 0 -21
9 -29 21 l-15 21 -7 -23z"/>
<path d="M3725 4620 c-3 -5 -1 -10 4 -10 6 0 11 5 11 10 0 6 -2 10 -4 10 -3 0
-8 -4 -11 -10z"/>
<path d="M3370 4598 c-11 -12 -20 -18 -20 -14 0 5 -9 -2 -19 -15 -11 -13 -23
-20 -28 -16 -4 5 0 13 10 18 23 14 22 38 -3 36 -11 -1 -20 -5 -20 -10 0 -4 -4
-6 -8 -3 -4 2 -8 -4 -9 -14 -2 -18 -1 -18 19 2 11 11 22 17 26 14 3 -4 -3 -13
-14 -21 -18 -14 -18 -16 -1 -29 9 -7 17 -19 17 -27 0 -11 -2 -11 -10 1 -14 22
-12 7 5 -31 8 -19 14 -26 15 -17 0 9 3 18 8 21 4 2 2 3 -4 1 -19 -4 -8 59 12
71 10 5 26 19 36 30 18 20 18 20 38 -4 11 -12 17 -28 13 -34 -3 -5 -1 -7 5 -3
5 3 12 0 15 -6 2 -7 7 -10 11 -7 4 4 0 14 -9 23 -9 9 -13 16 -9 16 4 0 -3 9
-16 20 -29 25 -35 25 -60 -2z"/>
<path d="M3504 4589 c-17 -19 -19 -19 -31 -3 -7 10 -13 14 -13 9 0 -4 11 -23
25 -41 23 -31 24 -34 8 -43 -10 -6 -14 -11 -9 -11 5 0 18 7 28 17 10 9 18 11
18 5 0 -6 -9 -17 -19 -24 -16 -11 -17 -16 -6 -31 11 -16 13 -16 19 -2 3 9 2
13 -4 10 -17 -10 -11 5 10 28 19 19 17 26 -7 30 -9 1 -33 23 -33 30 0 2 11 5
25 5 14 0 24 -3 21 -5 -6 -7 49 -53 63 -53 6 0 11 5 11 11 0 5 -4 7 -10 4 -11
-7 -60 38 -60 56 0 8 -4 8 -15 -1 -10 -8 -15 -9 -15 -2 0 6 8 16 18 21 9 6 12
11 6 11 -6 0 -19 -9 -30 -21z"/>
<path d="M3221 4591 c-9 -6 -8 -11 3 -21 9 -7 13 -16 10 -21 -3 -5 0 -9 5 -9
14 0 14 17 1 25 -5 3 -10 11 -10 17 0 7 6 6 15 -2 9 -7 15 -8 15 -2 0 14 -24
22 -39 13z"/>
<path d="M3172 4561 c-26 -35 -58 -37 -79 -4 -9 13 -20 23 -27 23 -7 0 -6 -3
2 -9 10 -6 10 -11 -4 -21 -9 -8 -23 -15 -32 -16 -21 -4 -44 15 -35 29 3 6 1 7
-5 3 -12 -7 -5 -36 8 -36 5 0 12 -9 15 -20 4 -11 11 -17 17 -14 6 4 5 10 -3
15 -8 5 -12 9 -9 10 3 0 14 2 25 4 11 2 21 9 23 14 7 20 22 11 19 -10 -1 -12
4 -23 11 -25 7 -1 8 0 2 3 -5 2 -10 9 -10 14 0 9 18 7 65 -6 12 -3 30 3 45 14
21 16 23 22 12 33 -11 11 -12 10 -6 -6 5 -13 4 -17 -3 -13 -6 4 -13 0 -17 -8
-3 -8 -13 -15 -21 -15 -15 0 -15 1 -1 16 16 16 40 54 33 54 -2 0 -13 -13 -25
-29z"/>
<path d="M3385 4580 c-4 -6 -4 -14 -1 -17 3 -4 6 -1 6 5 0 7 5 12 11 12 6 0 9
-7 5 -15 -3 -8 -1 -15 5 -15 14 0 7 32 -8 37 -6 2 -14 -1 -18 -7z"/>
<path d="M3036 4567 c3 -10 9 -15 12 -12 3 3 0 11 -7 18 -10 9 -11 8 -5 -6z"/>
<path d="M3107 4563 c4 -11 8 -12 13 -3 6 9 9 9 13 -1 4 -11 8 -10 23 4 11 10
13 17 6 17 -7 0 -12 -5 -12 -11 0 -6 -5 -7 -12 -2 -22 13 -37 12 -31 -4z"/>
<path d="M2890 4561 c0 -6 -5 -10 -11 -8 -6 1 -14 -5 -16 -13 -4 -12 -3 -12 5
-2 5 8 12 13 16 12 4 -1 12 0 18 2 9 3 9 6 0 12 -7 4 -12 2 -12 -3z"/>
<path d="M2920 4558 c0 -4 4 -8 9 -8 6 0 12 4 15 8 3 5 -1 9 -9 9 -8 0 -15 -4
-15 -9z"/>
<path d="M3010 4560 c0 -5 5 -10 11 -10 5 0 7 5 4 10 -3 6 -8 10 -11 10 -2 0
-4 -4 -4 -10z"/>
<path d="M2833 4553 c-7 -2 -13 -9 -13 -14 0 -6 4 -8 9 -4 5 3 12 -3 14 -12 3
-10 4 -6 4 10 -1 15 -2 27 -2 26 0 0 -6 -3 -12 -6z"/>
<path d="M3350 4550 c-8 -5 -12 -11 -9 -14 2 -3 11 -1 19 4 8 5 12 11 9 14 -2
3 -11 1 -19 -4z"/>
<path d="M2716 4535 c-5 -13 -10 -14 -27 -5 -11 7 -23 9 -26 7 -2 -3 5 -8 16
-12 12 -3 19 -10 16 -14 -2 -5 7 -13 21 -20 14 -6 22 -16 19 -21 -3 -6 -1 -10
4 -10 14 0 13 11 -3 32 -7 10 -16 15 -19 11 -4 -3 -7 -2 -7 3 0 6 5 15 12 22
6 6 9 14 6 17 -3 3 -8 -1 -12 -10z"/>
<path d="M2746 4535 c-8 -22 -8 -21 9 -39 13 -12 14 -20 4 -37 -15 -30 11 -81
35 -66 2 1 13 -6 24 -16 20 -18 21 -18 51 4 35 26 37 32 16 49 -8 7 -15 17
-15 23 0 5 9 2 20 -8 17 -15 24 -16 49 -5 38 15 49 45 25 71 -9 10 -15 21 -12
24 3 3 11 -1 18 -10 7 -8 16 -15 21 -15 5 0 0 9 -11 20 -16 16 -25 18 -38 11
-9 -6 -12 -11 -7 -11 6 -1 1 -6 -10 -11 -18 -8 -18 -8 4 -6 33 3 51 -27 29
-49 -14 -14 -20 -15 -32 -5 -9 8 -14 17 -11 21 3 4 -2 14 -11 21 -14 12 -14
14 2 26 10 7 14 13 9 13 -4 0 -23 -12 -42 -26 -28 -21 -34 -23 -39 -10 -3 9
-10 13 -15 11 -4 -3 1 -15 11 -25 22 -22 35 -26 24 -8 -5 7 -2 9 9 5 11 -4 14
-2 10 9 -3 7 -2 14 2 14 10 0 30 -24 33 -40 2 -8 9 -18 15 -22 8 -5 6 -8 -5
-8 -9 0 -22 8 -27 18 -10 16 -12 16 -25 0 -7 -10 -19 -18 -27 -18 -11 0 -11 2
1 10 8 5 10 10 5 10 -6 0 -20 -7 -32 -15 -18 -13 -22 -13 -33 0 -9 11 -9 19
-2 28 8 10 6 16 -9 25 -10 7 -19 17 -19 24 0 6 7 4 18 -5 10 -10 23 -17 28
-17 5 0 1 5 -9 11 -14 8 -16 14 -6 25 8 10 8 14 0 14 -6 0 -11 -6 -11 -12 0
-10 -2 -10 -9 0 -7 11 -10 10 -15 -3z m58 -107 c16 12 64 8 79 -8 9 -10 9 -13
-1 -17 -7 -3 -19 -11 -26 -19 -20 -20 -27 -17 -23 9 2 12 2 16 0 9 -9 -25 -73
6 -73 36 0 10 4 10 16 -3 10 -10 21 -12 28 -7z"/>
<path d="M2855 4410 c3 -5 8 -10 11 -10 2 0 4 5 4 10 0 6 -5 10 -11 10 -5 0
-7 -4 -4 -10z"/>
<path d="M3260 4541 c0 -5 7 -11 15 -15 8 -3 15 -1 15 3 0 5 -7 11 -15 15 -8
3 -15 1 -15 -3z"/>
<path d="M3380 4540 c0 -6 -10 -15 -22 -20 -13 -5 -16 -9 -8 -9 22 -1 54 26
41 34 -6 3 -11 1 -11 -5z"/>
<path d="M2795 4530 c-3 -5 -1 -10 4 -10 6 0 11 5 11 10 0 6 -2 10 -4 10 -3 0
-8 -4 -11 -10z"/>
<path d="M3420 4525 c7 -8 16 -12 21 -9 10 6 12 -9 2 -19 -3 -4 -15 1 -25 10
-18 16 -20 16 -39 -3 -19 -20 -18 -54 2 -54 5 0 9 -5 9 -11 0 -6 -7 -9 -14 -6
-10 4 -13 1 -9 -9 3 -8 2 -14 -3 -13 -21 4 -32 -3 -42 -26 -17 -36 -16 -38 22
-79 38 -40 53 -47 34 -16 -7 11 -19 20 -26 20 -7 0 -11 4 -8 9 3 5 -1 11 -9
15 -8 3 -15 13 -15 21 0 15 1 15 16 1 8 -9 20 -16 26 -16 6 0 0 9 -13 19 -23
19 -24 20 -5 38 18 17 18 17 12 -4 -4 -12 -2 -24 5 -29 9 -5 10 -2 6 9 -3 9 3
27 15 42 19 25 19 27 3 46 -10 10 -15 22 -10 27 4 4 10 1 12 -5 3 -7 9 -13 15
-13 6 0 5 6 -2 15 -17 21 -5 31 14 12 8 -8 12 -17 9 -21 -4 -3 -3 -6 0 -6 10
0 48 40 40 41 -5 0 1 5 12 10 16 7 13 8 -12 5 -18 -2 -33 0 -33 5 0 5 -5 9
-11 9 -8 0 -8 -5 1 -15z"/>
<path d="M3720 4536 c0 -2 7 -7 16 -10 8 -3 12 -2 9 4 -6 10 -25 14 -25 6z"/>
<path d="M2620 4520 c0 -5 7 -15 15 -23 11 -12 12 -17 2 -21 -6 -3 -1 -3 13 0
l25 7 -20 -22 c-11 -13 -21 -18 -23 -12 -2 6 -9 11 -15 11 -7 -1 1 -12 17 -25
16 -13 31 -32 32 -41 3 -22 -14 -46 -27 -38 -5 3 -9 0 -9 -5 0 -16 16 -13 34
5 15 14 16 14 16 -1 0 -8 -7 -18 -15 -21 -8 -4 -12 -10 -9 -15 9 -15 -10 -9
-33 10 -13 11 -23 25 -23 33 0 10 3 9 10 -2 16 -24 11 -2 -6 31 -8 17 -13 33
-10 36 5 6 37 -23 36 -32 -3 -14 8 -29 16 -22 5 4 2 12 -6 17 -12 8 -12 10 -1
10 8 0 2 9 -13 21 -25 20 -28 20 -45 5 -10 -9 -20 -14 -22 -11 -3 2 -6 -5 -6
-17 -2 -20 -1 -20 12 -2 7 11 17 15 21 11 5 -4 2 -13 -6 -18 -13 -9 -12 -10 1
-6 14 5 16 -1 14 -26 -2 -18 -7 -41 -11 -52 -7 -17 -6 -18 8 -5 9 8 14 18 11
23 -5 9 11 9 20 0 4 -3 0 -15 -10 -25 -15 -16 -15 -20 0 -35 15 -18 17 -22 17
-45 0 -6 3 -8 7 -5 3 4 11 -1 18 -9 8 -11 19 -14 34 -9 l23 7 -21 15 c-12 8
-21 21 -21 29 0 8 -5 14 -10 14 -12 0 7 -41 24 -52 8 -5 7 -8 -1 -8 -15 0 -47
31 -51 51 -2 7 -9 17 -15 21 -6 4 -8 10 -4 14 4 4 13 2 19 -4 7 -7 17 -12 23
-12 5 0 2 5 -7 11 -10 5 -18 15 -18 21 0 9 3 9 12 0 17 -17 51 42 42 71 -5 12
-9 29 -10 37 -2 8 -8 16 -13 18 -20 7 -11 22 10 19 12 -1 24 5 26 13 4 13 3
13 -6 0 -5 -8 -14 -11 -18 -6 -4 4 1 15 12 23 17 13 17 15 2 9 -12 -4 -27 3
-43 19 -13 13 -24 20 -24 15z"/>
<path d="M2652 4514 c10 -10 20 -16 22 -13 3 3 -5 11 -17 18 -21 13 -21 12 -5
-5z"/>
<path d="M3196 4505 l-27 -25 28 -25 c15 -13 23 -25 17 -25 -6 0 -17 7 -24 15
-7 8 -17 15 -23 15 -6 0 -3 -6 6 -13 16 -11 15 -15 -12 -44 -16 -17 -26 -34
-23 -37 3 -3 10 1 17 10 10 14 16 10 47 -24 26 -29 35 -47 32 -64 -4 -21 -4
-21 5 -3 5 11 10 16 10 10 1 -5 8 1 17 13 8 12 20 22 26 22 6 0 9 -3 5 -6 -3
-3 7 -17 22 -30 43 -36 46 -29 6 12 -34 33 -38 35 -54 20 -28 -25 -37 -19 -11
9 12 13 27 22 31 19 5 -3 9 0 9 5 0 14 -13 14 -28 -1 -6 -6 -15 -8 -19 -4 -4
4 -1 12 7 17 13 9 13 10 0 6 -8 -2 -14 -14 -13 -26 3 -26 -1 -26 -32 1 -28 24
-31 34 -12 41 6 2 2 2 -10 0 -27 -4 -29 3 -9 23 11 10 17 11 22 3 5 -8 10 -6
16 6 8 13 5 20 -11 31 -20 14 -31 51 -12 40 5 -3 11 1 15 9 3 8 12 15 21 15
13 0 12 -4 -4 -22 -19 -20 -19 -22 -4 -34 14 -10 20 -9 29 5 7 9 10 18 8 21
-3 2 -9 -2 -14 -10 -5 -8 -12 -11 -16 -7 -4 4 0 15 9 24 13 13 19 14 31 3 9
-7 16 -19 16 -28 0 -8 -3 -13 -6 -9 -7 7 -54 -46 -54 -62 0 -6 5 -11 11 -11 5
0 7 4 4 10 -7 11 38 60 54 60 19 0 -10 47 -36 59 -33 15 -36 14 -67 -14z"/>
<path d="M2525 4510 c-3 -6 1 -7 9 -4 18 7 21 14 7 14 -6 0 -13 -4 -16 -10z"/>
<path d="M2551 4499 c-21 -17 -22 -22 -10 -30 19 -12 29 -11 29 2 0 5 -4 7
-10 4 -5 -3 -10 -1 -10 4 0 6 4 11 9 11 5 0 11 7 15 15 7 19 6 19 -23 -6z"/>
<path d="M3055 4510 c-3 -5 -1 -10 4 -10 6 0 11 5 11 10 0 6 -2 10 -4 10 -3 0
-8 -4 -11 -10z"/>
<path d="M2585 4499 c-4 -6 -4 -13 -1 -16 3 -4 6 -1 6 6 0 7 5 9 10 6 6 -4 8
-11 5 -16 -4 -5 -1 -9 4 -9 13 0 13 3 5 24 -7 18 -20 21 -29 5z"/>
<path d="M3125 4500 c3 -5 8 -10 11 -10 2 0 4 5 4 10 0 6 -5 10 -11 10 -5 0
-7 -4 -4 -10z"/>
<path d="M3546 4494 c-8 -21 -8 -24 5 -24 5 0 8 4 4 9 -3 5 -1 12 5 16 5 3 10
-2 10 -12 0 -15 2 -16 10 -3 6 9 5 17 -3 22 -18 11 -24 10 -31 -8z"/>
<path d="M3620 4499 c0 -5 5 -7 10 -4 6 3 10 8 10 11 0 2 -4 4 -10 4 -5 0 -10
-5 -10 -11z"/>
<path d="M3732 4498 c-15 -15 -15 -28 -1 -28 5 0 8 4 5 9 -4 5 0 11 6 14 7 2
10 7 7 10 -3 4 -11 1 -17 -5z"/>
<path d="M2505 4490 c5 -9 2 -10 -12 -6 -17 5 -20 2 -20 -19 0 -23 1 -24 12
-8 13 17 15 17 39 -6 23 -22 28 -23 51 -11 13 7 22 17 19 22 -3 5 -12 1 -19
-8 -12 -17 -14 -17 -39 -1 -15 10 -24 22 -21 27 3 5 0 12 -6 16 -8 5 -9 3 -4
-6z"/>
<path d="M2933 4485 c0 -8 4 -15 9 -15 4 0 8 7 8 15 0 8 -4 15 -8 15 -5 0 -9
-7 -9 -15z"/>
<path d="M2994 4483 c-1 -10 -4 -27 -8 -38 -6 -16 -6 -17 3 -5 9 13 11 13 11
-1 0 -9 -7 -20 -16 -23 -9 -3 -12 -11 -8 -18 5 -8 2 -9 -9 -5 -10 3 -17 2 -17
-4 0 -6 8 -9 18 -7 9 2 16 10 15 16 -2 7 1 12 5 12 17 0 21 -12 10 -30 -10
-15 -7 -25 13 -54 13 -20 27 -36 32 -36 4 0 7 -5 7 -11 0 -5 -4 -7 -10 -4 -11
7 -14 -8 -3 -18 3 -4 11 1 18 10 10 13 7 21 -19 44 -29 26 -30 29 -14 45 15
16 18 16 33 0 20 -19 31 -20 45 -3 41 48 49 61 44 66 -4 3 -9 0 -11 -7 -3 -6
-10 -9 -15 -6 -6 4 -8 2 -5 -3 4 -6 -2 -22 -13 -34 l-20 -24 -19 22 c-18 22
-18 22 -40 2 -17 -16 -21 -17 -21 -4 0 9 7 18 16 22 12 4 13 8 3 13 -15 10
-21 69 -5 66 6 -2 8 -1 4 1 -5 3 -8 11 -8 19 0 20 -16 17 -16 -3z"/>
<path d="M3146 4485 c-3 -8 -1 -15 3 -15 5 0 11 7 15 15 3 8 1 15 -3 15 -5 0
-11 -7 -15 -15z"/>
<path d="M3596 4485 c-6 -17 13 -55 27 -55 4 0 1 10 -7 21 -8 12 -12 28 -9 35
3 8 3 14 0 14 -3 0 -8 -7 -11 -15z"/>
<path d="M3690 4489 c0 -5 -4 -8 -8 -5 -5 3 -9 -1 -9 -9 0 -21 10 -19 25 5 7
12 8 20 2 20 -5 0 -10 -5 -10 -11z"/>
<path d="M2805 4480 c3 -5 1 -10 -4 -10 -6 0 -11 -5 -11 -10 0 -6 8 -5 19 2
19 12 19 28 0 28 -6 0 -7 -4 -4 -10z"/>
<path d="M3040 4482 c0 -5 9 -17 20 -27 19 -17 21 -17 38 -2 10 10 22 14 25
10 10 -10 8 -25 -2 -19 -5 3 -14 -1 -21 -9 -9 -10 -9 -15 -1 -15 6 0 11 4 11
9 0 5 15 7 33 5 25 -3 28 -2 12 5 -11 5 -17 10 -12 10 4 1 -2 10 -14 22 -11
11 -23 18 -26 15 -4 -3 -3 -6 1 -6 4 0 0 -7 -9 -16 -20 -20 -33 -11 -15 11 8
10 9 15 1 15 -6 0 -11 -4 -11 -10 0 -5 -5 -10 -11 -10 -5 0 -7 5 -4 10 3 6 1
10 -4 10 -6 0 -11 -4 -11 -8z"/>
<path d="M3454 4478 c-4 -7 -4 -10 1 -6 4 4 19 -7 33 -24 25 -29 25 -31 8 -44
-18 -12 -18 -13 0 -12 11 0 28 -3 39 -7 16 -5 17 -5 5 4 -13 10 -13 12 0 22
13 9 12 10 -3 5 -12 -4 -17 -2 -14 6 2 7 15 12 28 11 15 -1 17 0 6 3 -9 3 -15
10 -12 15 11 16 -8 9 -20 -8 -12 -16 -15 -15 -32 15 -20 35 -28 39 -39 20z"/>
<path d="M2431 4472 c3 -20 -2 -32 -11 -27 -6 4 -8 10 -6 14 3 4 -2 8 -10 8
-11 0 -9 -6 7 -23 18 -19 20 -26 9 -39 -7 -8 -16 -12 -21 -9 -5 3 -9 0 -9 -5
0 -17 15 -13 46 14 15 13 25 27 21 31 -4 4 -7 2 -7 -5 0 -7 -4 -10 -10 -6 -5
3 -7 12 -4 20 4 8 10 12 15 9 5 -3 9 -1 9 4 0 6 -7 12 -15 16 -8 3 -14 2 -14
-2z"/>
<path d="M3340 4460 c0 -5 5 -10 11 -10 5 0 7 5 4 10 -3 6 -8 10 -11 10 -2 0
-4 -4 -4 -10z"/>
<path d="M3700 4463 c0 -16 25 -23 41 -11 11 8 11 9 -2 5 -9 -3 -22 0 -28 6
-8 8 -11 8 -11 0z"/>
<path d="M2381 4438 c7 -16 16 -28 21 -28 13 0 10 9 -13 33 l-21 22 13 -27z"/>
<path d="M3410 4449 c0 -5 5 -7 10 -4 6 3 10 8 10 11 0 2 -4 4 -10 4 -5 0 -10
-5 -10 -11z"/>
<path d="M3450 4450 c13 -9 7 -14 -12 -11 -5 0 -8 -3 -8 -9 0 -12 10 -13 29
-1 15 10 7 31 -12 31 -7 0 -6 -4 3 -10z"/>
<path d="M3573 4449 c18 -10 18 -12 1 -30 -16 -18 -16 -20 0 -38 17 -18 17
-20 -1 -30 -10 -6 -13 -11 -8 -11 17 0 34 21 29 35 -8 20 29 14 56 -10 26 -22
37 -45 21 -45 -5 0 -11 7 -15 15 -3 8 -10 15 -15 15 -14 0 -22 -30 -13 -47 8
-13 10 -13 15 1 5 13 11 14 24 7 15 -8 18 -5 19 18 1 20 -6 31 -27 44 -37 21
-36 33 4 57 18 11 25 20 16 20 -9 0 -24 -9 -34 -20 -10 -12 -24 -19 -31 -16
-7 3 -11 0 -8 -7 2 -7 -4 -13 -16 -14 -24 -2 -25 3 -5 24 12 12 13 18 4 29 -6
8 -17 14 -23 14 -6 0 -3 -5 7 -11z m69 -131 c-7 -7 -12 -8 -12 -2 0 6 3 14 7
17 3 4 9 5 12 2 2 -3 -1 -11 -7 -17z"/>
<path d="M2344 4439 c-3 -6 -1 -16 5 -22 6 -6 11 -7 11 -1 0 5 5 2 11 -6 9
-13 10 -13 6 0 -2 8 -10 14 -17 12 -8 -2 -10 3 -7 13 7 17 1 20 -9 4z"/>
<path d="M2482 4435 c-7 -8 -9 -15 -5 -15 4 -1 -3 -7 -17 -16 -24 -14 -24 -15
-2 -9 21 6 22 5 10 -14 -7 -12 -20 -21 -28 -21 -13 0 -13 1 0 10 21 13 3 12
-22 -1 -17 -9 -24 -8 -34 5 -8 11 -14 13 -19 7 -3 -6 -2 -11 3 -11 4 0 19 -10
32 -22 16 -15 22 -17 18 -6 -5 13 0 15 29 13 22 -2 41 2 50 11 8 8 11 14 6 14
-5 0 -14 -5 -21 -12 -7 -7 -12 -8 -12 -2 0 6 5 15 12 22 7 7 8 12 4 12 -5 0
-1 11 8 25 18 27 9 34 -12 10z"/>
<path d="M2710 4442 c0 -5 7 -9 15 -9 8 0 15 4 15 9 0 4 -7 8 -15 8 -8 0 -15
-4 -15 -8z"/>
<path d="M3038 4440 c12 -5 22 -14 22 -20 0 -6 5 -8 11 -5 13 8 -19 35 -41 34
-8 0 -5 -4 8 -9z"/>
<path d="M3291 4433 c-5 -10 -13 -17 -18 -15 -4 2 -9 -4 -11 -12 -2 -9 1 -16
7 -16 6 0 7 7 4 17 -4 11 -3 14 5 9 7 -4 15 -1 18 8 3 9 14 16 23 16 10 0 12
-3 5 -8 -17 -11 -36 -52 -24 -52 5 0 10 6 10 14 0 8 9 21 20 29 18 13 19 15 5
21 -26 9 -33 7 -44 -11z"/>
<path d="M2950 4430 c-8 -5 -12 -11 -9 -14 2 -3 11 -1 19 4 8 5 12 11 9 14 -2
3 -11 1 -19 -4z"/>
<path d="M3678 4422 c-16 -9 -28 -20 -28 -23 0 -13 27 -17 41 -7 11 8 10 9 -4
4 -12 -4 -17 -2 -14 6 2 7 9 12 15 11 5 -1 13 4 16 12 7 18 7 18 -26 -3z"/>
<path d="M2316 4422 c-7 -12 7 -27 29 -30 18 -2 18 -1 -3 11 -12 7 -19 16 -16
20 4 4 5 7 1 7 -3 0 -8 -4 -11 -8z"/>
<path d="M2506 4415 c-8 -22 -8 -25 4 -25 6 0 9 3 9 8 -3 20 2 25 12 12 9 -12
10 -12 7 -1 -6 21 -25 24 -32 6z"/>
<path d="M2685 4420 c3 -5 8 -10 11 -10 2 0 4 5 4 10 0 6 -5 10 -11 10 -5 0
-7 -4 -4 -10z"/>
<path d="M3020 4421 c0 -5 7 -11 15 -15 8 -3 15 -1 15 3 0 5 -7 11 -15 15 -8
3 -15 1 -15 -3z"/>
<path d="M3403 4416 c-6 -8 -9 -17 -6 -20 4 -3 1 -6 -5 -6 -7 0 -12 -5 -12
-11 0 -5 4 -8 9 -4 5 3 12 -3 14 -12 3 -11 5 -9 5 7 -1 14 3 33 7 43 9 20 4
21 -12 3z"/>
<path d="M3466 4415 c-10 -8 -23 -12 -29 -8 -6 3 -7 1 -3 -5 3 -5 0 -12 -6
-15 -7 -2 -10 -7 -7 -11 4 -4 14 0 23 9 9 9 16 14 16 10 0 -4 7 1 16 10 21 21
14 27 -10 10z"/>
<path d="M3723 4423 c-16 -6 -17 -33 -1 -33 6 0 8 3 5 7 -4 3 -2 12 4 20 12
14 11 14 -8 6z"/>
<path d="M2293 4402 c0 -12 5 -22 9 -22 11 0 10 12 -2 30 -7 12 -9 10 -7 -8z"/>
<path d="M2710 4410 c0 -5 8 -6 18 -3 15 6 15 5 3 -10 -12 -15 -12 -17 1 -12
17 7 72 -51 62 -66 -9 -14 -24 -10 -18 5 9 24 -14 28 -36 6 -24 -24 -14 -27
12 -3 10 9 18 11 18 6 0 -6 -7 -16 -15 -23 -8 -7 -15 -18 -15 -24 0 -6 5 -3
11 7 9 16 12 15 43 -8 18 -14 37 -25 42 -25 5 0 1 5 -9 11 -18 10 -18 12 -1
30 18 20 40 27 29 9 -3 -5 -1 -10 4 -10 6 0 11 5 11 12 0 6 11 1 25 -12 24
-23 25 -23 45 -5 11 10 19 25 19 34 -1 13 -2 13 -6 -1 -2 -10 -8 -18 -13 -18
-12 0 -33 30 -26 37 4 4 12 1 17 -7 9 -13 10 -13 6 0 -2 8 -14 14 -26 13 -26
-3 -26 2 -1 29 22 24 26 38 9 38 -5 0 -8 -4 -4 -9 3 -5 -11 -22 -30 -37 -20
-15 -33 -29 -30 -33 3 -3 9 0 14 7 5 9 16 3 36 -18 16 -16 26 -33 22 -36 -4
-4 -15 2 -25 13 -21 25 -54 25 -83 0 -24 -21 -38 -15 -19 8 14 16 12 19 -42
77 -26 28 -48 37 -48 18z"/>
<path d="M3086 4395 c7 -17 -11 -21 -19 -5 -3 6 -4 5 -3 -2 4 -19 30 -16 34 5
2 9 -1 17 -7 17 -6 0 -8 -7 -5 -15z"/>
<path d="M2690 4390 c0 -5 5 -10 11 -10 5 0 7 5 4 10 -3 6 -8 10 -11 10 -2 0
-4 -4 -4 -10z"/>
<path d="M2247 4376 c-6 -15 11 -36 28 -36 5 0 2 5 -7 11 -10 5 -15 16 -12 24
4 8 4 15 1 15 -3 0 -7 -6 -10 -14z"/>
<path d="M2525 4380 c-3 -5 -1 -10 4 -10 6 0 11 5 11 10 0 6 -2 10 -4 10 -3 0
-8 -4 -11 -10z"/>
<path d="M2925 4380 c-3 -5 -1 -10 4 -10 6 0 11 5 11 10 0 6 -2 10 -4 10 -3 0
-8 -4 -11 -10z"/>
<path d="M2330 4371 c0 -5 -15 -8 -32 -6 -18 2 -25 1 -15 -1 9 -3 15 -10 12
-15 -4 -5 -1 -9 5 -9 6 0 15 -10 20 -22 5 -13 9 -17 9 -10 1 14 25 42 36 42 3
0 4 -9 0 -19 -3 -11 1 -25 10 -34 20 -21 19 -27 -6 -24 -12 1 -24 -5 -26 -13
-4 -13 -3 -13 6 0 5 8 13 11 17 7 4 -4 2 -13 -4 -19 -15 -15 -15 -28 0 -28 6
0 8 3 5 7 -9 9 23 44 34 37 5 -3 9 -10 9 -15 0 -6 -4 -8 -9 -4 -15 8 -25 -15
-12 -28 17 -17 13 -31 -4 -17 -19 16 -65 -1 -83 -30 -17 -27 -5 -25 18 2 15
19 20 20 34 9 14 -12 14 -15 1 -34 -8 -12 -15 -26 -15 -32 0 -5 5 -3 10 5 8
13 10 13 10 -1 0 -9 -7 -20 -16 -23 -9 -3 -12 -11 -8 -18 5 -8 2 -9 -9 -5 -10
3 -17 2 -17 -4 0 -6 8 -9 18 -7 9 2 16 10 15 16 -2 7 1 12 5 12 17 0 21 -12
10 -30 -10 -15 -7 -25 12 -54 17 -23 27 -31 32 -23 6 9 8 9 8 0 0 -7 5 -13 11
-13 8 0 8 5 -1 15 -17 20 -1 19 22 -2 10 -9 18 -12 18 -7 0 5 -16 19 -35 32
-19 12 -35 18 -35 12 0 -5 5 -10 11 -10 5 0 7 -5 3 -11 -4 -7 -11 -6 -22 5
-15 15 -15 17 0 32 15 16 18 16 33 0 21 -21 27 -20 55 4 13 11 20 20 16 20 -4
0 0 7 9 16 9 9 13 19 9 23 -4 3 -9 0 -11 -7 -3 -6 -10 -9 -15 -6 -6 4 -8 2 -5
-3 4 -6 -2 -22 -13 -34 l-20 -24 -19 22 c-18 22 -18 22 -40 2 -17 -16 -21 -17
-21 -4 0 9 7 18 16 22 12 4 13 8 3 13 -15 10 -21 69 -5 66 6 -2 8 -1 3 1 -4 3
-5 8 -2 13 3 5 -2 16 -11 24 -14 14 -14 16 0 16 9 0 22 -13 30 -28 24 -47 43
-58 64 -38 10 9 22 13 25 9 10 -10 8 -25 -2 -19 -5 3 -14 -1 -21 -9 -9 -10 -9
-15 -1 -15 6 0 11 4 11 9 0 5 15 8 33 6 17 -2 24 -1 14 1 -9 3 -15 10 -12 15
4 5 1 9 -5 9 -6 0 -15 10 -20 23 -5 12 -9 16 -9 9 -1 -14 -25 -42 -36 -42 -3
0 -4 9 0 19 3 11 -1 25 -10 34 -20 21 -19 27 6 24 12 -1 24 5 26 13 4 13 3 13
-6 0 -5 -8 -13 -11 -17 -7 -4 4 -2 13 4 19 15 15 15 28 0 28 -6 0 -8 -3 -5 -7
9 -9 -23 -44 -34 -37 -5 3 -9 10 -9 15 0 6 4 8 9 4 23 -14 20 19 -4 51 -15 19
-24 38 -20 42 3 4 10 0 15 -8 25 -43 37 -52 59 -45 23 7 23 7 2 21 -11 8 -18
21 -15 29 4 8 4 15 1 15 -14 0 -14 -31 -1 -45 14 -13 14 -15 0 -15 -9 0 -16 4
-16 8 0 4 -13 23 -29 42 -28 34 -30 34 -48 17 -11 -9 -23 -14 -26 -10 -10 10
-8 25 2 19 5 -3 14 1 21 9 9 10 9 15 1 15 -6 0 -11 -4 -11 -9z m96 -218 c-4
-4 -11 -1 -16 7 -16 25 -11 35 7 17 9 -9 13 -20 9 -24z"/>
<path d="M3215 4370 c3 -5 8 -10 11 -10 2 0 4 5 4 10 0 6 -5 10 -11 10 -5 0
-7 -4 -4 -10z"/>
<path d="M3433 4355 c-30 -24 -32 -24 -42 -8 -6 10 -11 13 -11 7 0 -6 7 -17
15 -24 8 -7 15 -17 15 -23 0 -5 -8 -3 -18 6 -26 24 -36 21 -12 -3 21 -21 44
-18 37 3 -4 13 21 42 29 34 3 -3 1 -15 -6 -26 -7 -14 -7 -21 0 -21 5 0 10 7
10 15 0 17 16 20 25 5 3 -5 11 -10 17 -10 6 0 -2 10 -17 22 -26 20 -27 22 -9
35 10 7 14 13 8 13 -5 0 -23 -12 -41 -25z"/>
<path d="M3495 4371 c3 -5 -3 -12 -12 -15 -10 -2 -3 -3 15 -1 17 2 32 -1 32
-6 0 -5 5 -9 11 -9 5 0 8 4 4 9 -3 5 3 12 12 15 10 2 3 3 -14 1 -18 -2 -33 1
-33 6 0 5 -5 9 -11 9 -5 0 -8 -4 -4 -9z"/>
<path d="M3695 4370 c3 -5 8 -10 11 -10 2 0 4 5 4 10 0 6 -5 10 -11 10 -5 0
-7 -4 -4 -10z"/>
<path d="M2217 4364 c-2 -3 11 -20 30 -39 33 -33 68 -38 56 -9 -8 20 -24 17
-16 -3 3 -10 -10 -2 -30 19 -19 20 -37 34 -40 32z"/>
<path d="M2550 4360 c0 -5 7 -7 15 -4 8 4 15 8 15 10 0 2 -7 4 -15 4 -8 0 -15
-4 -15 -10z"/>
<path d="M2700 4359 c0 -5 5 -7 10 -4 6 3 10 8 10 11 0 2 -4 4 -10 4 -5 0 -10
-5 -10 -11z"/>
<path d="M2718 4349 c-10 -10 -19 -22 -20 -26 0 -5 -8 -13 -17 -19 -11 -9 -13
-17 -6 -31 10 -18 11 -17 32 4 12 13 18 23 13 23 -5 0 -16 -7 -24 -16 -14 -13
-16 -13 -16 -1 0 8 7 18 16 21 8 3 12 10 9 16 -3 5 0 10 7 10 7 0 19 9 26 20
15 25 3 25 -20 -1z"/>
<path d="M2810 4354 c8 -10 15 -20 16 -22 1 -2 4 1 7 5 3 5 -4 15 -16 23 -21
12 -21 12 -7 -6z"/>
<path d="M2950 4358 c0 -4 7 -8 15 -8 8 0 15 4 15 8 0 5 -7 9 -15 9 -8 0 -15
-4 -15 -9z"/>
<path d="M3160 4354 c0 -8 -4 -12 -10 -9 -5 3 -10 2 -10 -4 0 -5 5 -11 11 -13
5 -2 -1 -14 -14 -27 l-25 -23 -38 36 c-21 20 -40 34 -42 31 -5 -5 69 -74 79
-75 3 0 15 9 27 20 27 25 32 25 29 -1 -1 -12 5 -24 13 -26 13 -4 13 -3 0 6 -8
5 -11 13 -7 17 4 5 19 -4 33 -20 25 -26 26 -52 2 -28 -7 7 -17 12 -23 12 -5 0
-2 -5 8 -11 9 -5 17 -15 17 -21 0 -7 -5 -6 -15 2 -8 7 -15 9 -15 5 0 -10 43
-44 55 -44 6 0 2 4 -8 10 -16 9 -15 12 8 43 14 18 25 37 25 41 0 5 -6 1 -13
-9 -12 -16 -16 -15 -49 22 -26 29 -35 47 -31 61 3 12 3 21 -1 21 -3 0 -6 -7
-6 -16z"/>
<path d="M3600 4345 c-7 -13 -17 -22 -22 -19 -29 18 17 -35 58 -66 13 -9 11
-4 -6 15 -14 17 -28 31 -33 33 -4 2 2 17 14 33 11 16 16 29 11 29 -5 0 -15
-11 -22 -25z"/>
<path d="M2497 4342 c-10 -10 -14 -22 -10 -25 3 -4 1 -7 -5 -7 -7 0 -12 7 -12
15 0 8 -4 15 -8 15 -16 0 -9 -27 10 -39 18 -11 24 -4 19 23 -1 5 5 6 13 3 10
-4 13 -1 9 9 -3 7 0 14 6 14 6 0 11 -3 11 -8 0 -4 9 -13 21 -20 12 -8 18 -9
14 -3 -3 6 -1 11 4 11 6 0 11 5 11 11 0 8 -4 8 -14 0 -10 -9 -16 -8 -26 4 -16
19 -23 19 -43 -3z"/>
<path d="M3107 4338 c-13 -13 -16 -23 -9 -30 15 -15 30 -2 30 27 0 14 -1 25
-2 24 0 0 -9 -10 -19 -21z m13 -18 c0 -5 -5 -10 -11 -10 -5 0 -7 5 -4 10 3 6
8 10 11 10 2 0 4 -4 4 -10z"/>
<path d="M3180 4342 c0 -15 39 -59 40 -44 0 6 -5 12 -11 12 -5 0 -8 3 -6 8 3
4 -1 13 -9 20 -8 7 -14 9 -14 4z"/>
<path d="M2213 4322 c15 -10 24 -22 20 -25 -3 -4 -1 -7 5 -7 7 0 12 -5 12 -11
0 -5 -4 -7 -10 -4 -5 3 -10 1 -10 -4 0 -13 10 -14 28 -2 10 6 6 15 -17 39 -16
18 -35 32 -43 32 -7 0 -1 -8 15 -18z"/>
<path d="M2979 4326 c7 -8 8 -16 4 -18 -4 -3 -3 -4 3 -2 6 1 10 -15 10 -37 -1
-21 -4 -39 -8 -39 -5 0 -8 -5 -8 -11 0 -5 4 -8 9 -4 5 3 12 -3 15 -12 2 -10 3
-3 1 15 -2 22 0 32 8 29 7 -2 11 -13 10 -23 -1 -10 0 -13 3 -6 3 6 10 10 14 7
5 -3 19 5 31 17 17 18 20 19 16 6 -8 -21 8 -24 16 -4 9 24 -24 29 -40 6 -14
-19 -15 -19 -38 -3 -14 10 -24 25 -25 33 0 13 1 13 10 0 17 -26 11 1 -7 31
-10 16 -21 29 -26 29 -5 0 -4 -6 2 -14z"/>
<path d="M3510 4318 c21 -23 29 -51 8 -30 -7 7 -16 12 -21 12 -23 0 22 -26 48
-27 25 -1 27 0 10 7 -11 5 -16 9 -11 9 6 1 1 8 -10 16 -10 8 -14 15 -9 15 6 0
3 5 -5 10 -26 17 -32 11 -10 -12z"/>
<path d="M2167 4324 c-3 -3 -3 -12 0 -20 4 -10 0 -13 -13 -8 -15 5 -16 4 -4
-5 11 -7 19 -6 31 5 16 14 18 14 28 -3 6 -10 11 -13 11 -7 0 17 -22 33 -38 27
-10 -4 -13 -2 -8 5 8 13 3 16 -7 6z"/>
<path d="M3540 4320 c0 -5 5 -10 10 -10 6 0 10 5 10 10 0 6 -4 10 -10 10 -5 0
-10 -4 -10 -10z"/>
<path d="M2530 4310 c0 -5 5 -10 11 -10 5 0 7 5 4 10 -3 6 -8 10 -11 10 -2 0
-4 -4 -4 -10z"/>
<path d="M2340 4300 c0 -5 5 -10 11 -10 5 0 7 5 4 10 -3 6 -8 10 -11 10 -2 0
-4 -4 -4 -10z"/>
<path d="M2502 4290 c-7 -11 -19 -20 -27 -20 -8 0 -15 -5 -15 -10 0 -12 41 7
52 24 5 7 8 5 8 -5 0 -9 -7 -20 -16 -23 -9 -3 -12 -11 -8 -18 5 -8 2 -9 -9 -5
-10 3 -17 2 -17 -4 0 -13 31 -7 32 6 1 6 8 15 17 21 11 9 13 17 6 33 -10 21
-10 21 -23 1z"/>
<path d="M3460 4300 c0 -5 5 -10 11 -10 5 0 7 5 4 10 -3 6 -8 10 -11 10 -2 0
-4 -4 -4 -10z"/>
<path d="M2550 4290 c-13 -8 -12 -10 3 -10 9 0 17 5 17 10 0 12 -1 12 -20 0z"/>
<path d="M3270 4289 c0 -5 5 -7 10 -4 15 9 12 -4 -5 -22 -8 -8 -13 -19 -10
-24 4 -5 1 -9 -6 -9 -7 0 -10 -3 -6 -6 3 -3 14 -1 24 5 10 6 12 11 5 11 -8 0
-6 8 8 22 15 16 17 24 8 30 -18 11 -28 10 -28 -3z"/>
<path d="M3573 4289 c18 -10 18 -12 1 -30 -18 -20 -40 -27 -29 -9 3 6 1 10 -4
10 -6 0 -11 -5 -11 -12 0 -6 -11 -1 -25 12 -24 23 -25 23 -46 4 -12 -10 -23
-18 -25 -16 -9 5 -27 2 -21 -5 4 -3 -1 -11 -9 -18 -11 -8 -14 -19 -9 -34 l7
-23 15 21 c8 12 21 21 29 21 8 0 14 5 14 10 0 12 -41 -7 -52 -24 -5 -8 -8 -7
-8 2 0 14 31 46 51 50 7 2 17 9 21 15 4 6 10 8 14 4 4 -4 2 -13 -4 -19 -7 -7
-12 -17 -12 -22 0 -6 5 -3 11 7 5 9 15 17 21 17 7 0 7 -4 -1 -14 -9 -10 -8
-15 3 -19 10 -4 13 -1 10 8 -4 10 1 13 18 10 33 -6 74 31 57 51 -6 8 -17 14
-23 14 -6 0 -3 -5 7 -11z"/>
<path d="M3650 4285 c0 -8 2 -15 4 -15 2 0 6 7 10 15 3 8 1 15 -4 15 -6 0 -10
-7 -10 -15z"/>
<path d="M2192 4270 c0 -14 -3 -34 -8 -45 -7 -17 -6 -18 8 -5 9 8 14 18 11 23
-5 9 11 9 20 0 4 -3 0 -14 -9 -24 -15 -17 -15 -20 5 -45 26 -33 28 -58 2 -26
-11 12 -22 22 -26 22 -4 0 -2 -7 5 -15 7 -9 10 -19 6 -22 -4 -4 -12 -1 -17 7
-9 13 -10 13 -6 0 2 -8 14 -14 26 -13 11 2 21 -2 21 -7 0 -6 -3 -10 -8 -10 -4
0 -13 -9 -20 -21 -11 -17 -10 -24 13 -50 14 -17 23 -35 19 -40 -6 -11 -24 -12
-23 -1 5 28 -2 32 -27 16 l-25 -17 20 -21 21 -20 25 24 c14 13 25 18 25 12 0
-7 5 -12 12 -12 6 0 3 9 -7 20 -10 11 -16 23 -13 26 3 3 15 -7 27 -22 11 -15
21 -22 21 -17 0 5 -9 19 -21 32 -12 12 -18 25 -14 29 4 4 15 -3 24 -15 l18
-21 0 29 c0 19 -3 25 -8 17 -4 -7 -11 -9 -15 -5 -4 4 -2 13 4 19 15 15 15 28
0 28 -6 0 -8 -3 -5 -7 9 -9 -23 -44 -34 -37 -5 3 -9 10 -9 15 0 6 4 8 9 4 15
-8 25 15 12 28 -17 17 -13 31 4 17 19 -16 65 1 83 30 17 27 5 25 -18 -2 -15
-19 -20 -20 -34 -9 -9 7 -16 20 -16 27 0 8 -5 14 -10 14 -12 0 7 -41 24 -52 7
-5 4 -8 -6 -8 -10 0 -25 15 -34 33 -9 17 -22 35 -28 39 -6 4 -7 10 -3 14 4 4
13 2 19 -4 7 -7 17 -12 23 -12 5 0 2 5 -7 11 -10 5 -18 15 -18 21 0 7 5 6 15
-2 24 -20 17 -3 -10 24 -14 14 -25 22 -26 18 0 -4 -4 2 -9 13 -8 18 -9 18 -8
-5z m58 -181 c0 -6 -4 -8 -9 -4 -15 8 -25 -15 -12 -28 6 -6 11 -16 11 -21 -1
-6 -10 0 -21 13 -18 22 -18 25 -3 42 17 18 34 17 34 -2z m-43 -99 c2 -24 -3
-25 -23 -6 -11 11 -11 16 -1 19 21 9 23 8 24 -13z"/>
<path d="M2278 4266 c-22 -19 -24 -25 -12 -30 8 -3 12 -10 9 -16 -3 -6 -3 -20
0 -31 6 -17 9 -19 16 -8 5 8 9 19 9 24 0 6 -5 3 -10 -5 -8 -13 -10 -13 -10 1
0 9 7 20 16 23 9 3 12 11 8 18 -5 8 -2 9 9 5 10 -3 17 -2 17 4 0 6 -8 9 -17 7
-10 -2 -17 -10 -15 -16 2 -14 -14 -16 -23 -3 -6 11 35 42 47 35 4 -3 8 0 8 5
0 18 -23 12 -52 -13z"/>
<path d="M2760 4274 c0 -8 -4 -12 -10 -9 -5 3 -10 1 -10 -4 0 -6 5 -11 12 -11
6 0 1 -11 -13 -26 -17 -18 -19 -23 -6 -18 18 7 24 -11 7 -19 -6 -3 -5 -4 2 -3
7 2 12 13 11 25 -3 21 12 30 19 10 2 -5 11 -11 20 -13 21 -3 36 -16 19 -16 -7
0 -9 -5 -5 -11 4 -8 10 -6 17 6 9 18 -8 39 -24 29 -13 -8 -37 36 -32 57 3 10
3 19 -1 19 -3 0 -6 -7 -6 -16z"/>
<path d="M2845 4280 c11 -5 16 -9 10 -9 -5 -1 1 -8 13 -17 l22 -15 -30 -32
c-16 -18 -30 -38 -30 -44 0 -15 -16 -17 -25 -3 -3 6 -11 10 -18 10 -6 0 -2 -6
9 -14 10 -8 16 -18 12 -22 -5 -4 -16 3 -27 14 -10 12 -22 22 -26 22 -5 0 2
-11 14 -24 22 -23 22 -25 4 -35 -10 -6 -14 -11 -9 -11 5 0 24 11 42 25 31 23
34 24 43 8 6 -10 11 -13 11 -6 0 6 -4 15 -10 18 -18 11 -11 26 31 67 23 23 34
38 26 35 -17 -6 -44 19 -32 31 4 4 10 1 12 -5 3 -7 9 -13 15 -13 7 0 7 5 -1
13 -6 8 -26 14 -43 14 -27 1 -29 -1 -13 -7z"/>
<path d="M2937 4276 c-12 -9 -14 -16 -8 -21 6 -3 11 -1 11 5 0 6 10 15 23 20
12 5 15 9 7 9 -8 0 -23 -6 -33 -13z"/>
<path d="M3405 4270 c-10 -12 -25 -18 -33 -15 -13 5 -13 3 -1 -12 12 -15 12
-16 -3 -10 -10 3 -18 2 -18 -2 0 -5 7 -11 15 -15 8 -3 15 -1 15 5 0 16 49 61
60 54 6 -3 10 -1 10 4 0 18 -26 12 -45 -9z"/>
<path d="M2135 4267 c7 -16 45 -20 45 -5 0 6 -3 8 -6 5 -4 -3 -15 -2 -25 4
-14 7 -17 6 -14 -4z"/>
<path d="M2575 4270 c-3 -5 -1 -10 4 -10 6 0 11 5 11 10 0 6 -2 10 -4 10 -3 0
-8 -4 -11 -10z"/>
<path d="M2706 4255 c-9 -14 -12 -25 -6 -25 5 0 13 0 17 0 5 0 9 11 10 25 2
31 -1 31 -21 0z"/>
<path d="M3135 4270 c-3 -5 -1 -10 4 -10 6 0 11 5 11 10 0 6 -2 10 -4 10 -3 0
-8 -4 -11 -10z"/>
<path d="M2540 4260 c0 -17 -49 -62 -60 -55 -6 3 -10 1 -10 -4 0 -6 5 -11 11
-11 16 0 69 47 62 54 -4 3 -2 6 3 6 6 0 15 -5 22 -12 7 -7 12 -8 12 -2 0 5 -9
15 -20 22 -13 8 -20 8 -20 2z"/>
<path d="M2780 4265 c0 -5 5 -17 10 -25 7 -11 10 -11 10 -2 0 8 8 5 22 -8 16
-15 24 -17 30 -8 11 18 10 28 -3 28 -5 0 -7 -4 -4 -10 3 -5 2 -10 -4 -10 -5 0
-11 4 -13 9 -1 5 -10 11 -18 13 -8 2 -18 8 -22 13 -5 7 -8 7 -8 0z"/>
<path d="M2949 4250 c-46 -38 -49 -41 -49 -50 0 -5 7 -15 15 -24 8 -8 15 -21
15 -28 0 -7 -12 0 -25 15 -25 28 -45 29 -45 1 0 -8 5 -14 12 -14 6 0 8 -3 5
-6 -7 -7 30 -44 44 -44 10 0 37 27 49 51 17 31 -4 21 -22 -11 -21 -38 -31 -38
-58 1 -28 39 -20 49 10 12 21 -27 22 -27 35 -9 12 16 11 21 -8 37 l-22 19 24
20 c12 11 28 17 34 13 5 -3 7 -1 3 5 -3 5 0 12 6 15 7 2 10 7 7 11 -3 3 -17
-3 -30 -14z"/>
<path d="M3309 4260 c-1 -5 -2 -15 -3 -21 -2 -16 -35 -37 -54 -34 -9 1 -11 0
-4 -2 7 -3 10 -9 7 -14 -4 -5 -1 -9 4 -9 6 0 11 5 11 12 0 6 13 0 28 -15 15
-15 32 -27 37 -27 5 0 0 6 -11 14 -10 8 -16 18 -12 22 9 8 48 -33 48 -49 0
-12 29 23 30 36 0 4 -4 7 -10 7 -5 0 -9 -3 -9 -7 4 -23 -3 -23 -22 1 -15 19
-27 25 -40 21 -10 -4 -19 -2 -19 3 0 6 5 12 11 14 5 2 11 11 13 20 3 21 16 36
16 19 0 -7 5 -9 11 -5 8 4 7 9 -2 15 -19 12 -29 11 -30 -1z"/>
<path d="M2115 4251 c3 -5 1 -12 -5 -16 -6 -4 -8 -11 -5 -16 8 -12 35 -12 35
1 0 5 -8 7 -17 3 -15 -5 -16 -3 -5 8 15 16 16 29 1 29 -5 0 -8 -4 -4 -9z"/>
<path d="M3607 4245 c3 -8 9 -12 14 -9 12 7 11 11 -5 17 -10 4 -13 1 -9 -8z"/>
<path d="M2590 4237 c0 -8 9 -22 20 -32 12 -10 18 -25 15 -33 -4 -12 -2 -12 9
-3 11 9 14 7 14 -14 0 -29 -4 -31 -25 -10 -12 12 -18 13 -29 4 -8 -6 -14 -17
-14 -23 0 -6 5 -3 11 7 9 16 12 15 43 -8 18 -14 37 -25 41 -25 5 0 1 6 -9 13
-16 12 -16 14 3 31 12 11 21 24 21 30 0 6 -5 3 -11 -6 -5 -10 -15 -18 -21 -18
-7 0 -6 5 2 15 9 11 9 15 1 15 -18 0 -63 49 -56 60 3 6 1 10 -4 10 -6 0 -11
-6 -11 -13z"/>
<path d="M3127 4235 c3 -9 2 -15 -3 -14 -20 3 -35 -2 -29 -10 3 -5 -3 -12 -12
-14 -10 -3 -6 -4 8 -4 18 1 25 6 22 14 -3 8 -2 13 3 12 22 -4 33 2 28 16 -4 8
-10 15 -15 15 -4 0 -6 -7 -2 -15z"/>
<path d="M3156 4235 c4 -8 8 -15 10 -15 2 0 4 7 4 15 0 8 -4 15 -10 15 -5 0
-7 -7 -4 -15z"/>
<path d="M2153 4220 c1 -11 5 -20 9 -20 3 0 6 9 5 20 -1 11 -5 20 -9 20 -3 0
-6 -9 -5 -20z"/>
<path d="M3574 4226 c-19 -15 -19 -15 2 -13 11 0 21 7 21 14 0 16 1 16 -23 -1z"/>
<path d="M2081 4225 c7 -18 54 -85 60 -85 3 0 6 7 6 15 0 8 -2 13 -5 10 -3 -2
-18 12 -35 33 -16 20 -28 33 -26 27z"/>
<path d="M2320 4220 c-8 -5 -12 -11 -9 -14 2 -3 11 -1 19 4 8 5 12 11 9 14 -2
3 -11 1 -19 -4z"/>
<path d="M3325 4220 c-3 -5 -1 -10 4 -10 6 0 11 5 11 10 0 6 -2 10 -4 10 -3 0
-8 -4 -11 -10z"/>
<path d="M2543 4212 c-8 -5 -8 -11 1 -24 10 -13 14 -14 30 -3 29 22 1 47 -31
27z m32 -12 c-3 -5 -10 -10 -16 -10 -5 0 -9 5 -9 10 0 6 7 10 16 10 8 0 12 -4
9 -10z"/>
<path d="M2934 4209 c-3 -6 0 -15 7 -20 24 -15 34 -10 13 7 -16 13 -16 15 -1
10 9 -3 17 -1 17 4 0 14 -27 13 -36 -1z"/>
<path d="M3033 4195 c-30 -24 -32 -24 -42 -8 -6 10 -10 14 -10 8 0 -13 24 -45
33 -45 4 0 4 5 1 10 -3 6 -1 10 4 10 6 0 11 -3 11 -7 0 -5 12 -16 26 -26 24
-18 26 -18 44 -2 19 17 17 45 -3 45 -8 0 -8 -3 0 -11 9 -9 8 -15 -2 -25 -19
-19 -27 -17 -20 5 3 11 -1 24 -11 32 -14 12 -14 14 2 26 10 7 14 13 8 13 -5 0
-23 -12 -41 -25z m24 -20 c8 -9 13 -19 9 -22 -7 -7 -36 16 -36 28 0 13 10 11
27 -6z"/>
<path d="M3526 4204 c-5 -14 -4 -15 9 -4 17 14 19 20 6 20 -5 0 -12 -7 -15
-16z"/>
<path d="M3130 4188 c-10 -21 -10 -21 3 -5 8 9 20 17 28 17 9 0 10 -3 3 -8
-17 -11 -36 -52 -24 -52 5 0 10 6 10 14 0 8 9 21 20 29 18 13 19 15 5 21 -27
10 -34 7 -45 -16z"/>
<path d="M3350 4200 c0 -6 7 -10 15 -10 8 0 15 2 15 4 0 2 -7 6 -15 10 -8 3
-15 1 -15 -4z"/>
<path d="M3464 4202 c-7 -4 0 -16 20 -32 23 -19 27 -20 16 -5 -8 11 -19 23
-25 27 -6 5 -5 8 3 8 8 0 21 -9 30 -20 17 -19 17 -19 41 0 13 11 20 20 15 20
-4 0 -15 -7 -25 -16 -16 -14 -18 -14 -29 5 -11 22 -27 26 -46 13z"/>
<path d="M2064 4188 c-5 -7 -3 -8 6 -3 8 5 11 3 8 -6 -3 -8 -11 -13 -17 -11
-18 3 -13 -12 8 -25 16 -10 20 -9 25 3 5 14 -9 54 -19 54 -2 0 -7 -5 -11 -12z
m26 -28 c0 -5 -5 -10 -11 -10 -5 0 -7 5 -4 10 3 6 8 10 11 10 2 0 4 -4 4 -10z"/>
<path d="M2137 4189 c7 -7 15 -10 18 -7 3 3 -2 9 -12 12 -14 6 -15 5 -6 -5z"/>
<path d="M2175 4190 c-3 -5 -1 -10 4 -10 6 0 11 5 11 10 0 6 -2 10 -4 10 -3 0
-8 -4 -11 -10z"/>
<path d="M2770 4190 c0 -5 5 -10 11 -10 5 0 7 5 4 10 -3 6 -8 10 -11 10 -2 0
-4 -4 -4 -10z"/>
<path d="M2445 4180 c3 -5 8 -10 11 -10 2 0 4 5 4 10 0 6 -5 10 -11 10 -5 0
-7 -4 -4 -10z"/>
<path d="M2503 4184 c-7 -3 -9 -12 -6 -20 8 -20 23 -17 17 4 -5 15 -4 15 8 2
19 -21 53 -47 45 -34 -3 6 5 17 18 24 14 7 25 17 25 22 0 5 -13 0 -30 -12
l-29 -21 -13 21 c-13 21 -15 22 -35 14z"/>
<path d="M2700 4179 c0 -5 5 -7 10 -4 6 3 10 8 10 11 0 2 -4 4 -10 4 -5 0 -10
-5 -10 -11z"/>
<path d="M3426 4173 c-4 -9 -4 -18 -1 -21 3 -3 5 0 5 6 0 7 5 12 11 12 5 0 7
-4 4 -10 -3 -5 -2 -10 4 -10 19 0 20 16 1 28 -15 9 -19 8 -24 -5z"/>
<path d="M3183 4172 c-9 -6 -6 -16 12 -36 14 -16 27 -27 30 -24 3 2 -4 14 -15
26 -21 23 -27 37 -10 27 6 -3 10 -1 10 4 0 13 -10 14 -27 3z"/>
<path d="M2160 4155 c0 -8 2 -15 4 -15 2 0 6 7 10 15 3 8 1 15 -4 15 -6 0 -10
-7 -10 -15z"/>
<path d="M2706 4155 c-11 -8 -15 -15 -10 -15 6 0 15 5 22 12 9 9 12 9 12 0 0
-7 4 -12 10 -12 5 0 7 7 4 15 -7 18 -14 18 -38 0z"/>
<path d="M3220 4164 c0 -18 18 -36 29 -30 14 9 15 36 1 36 -5 0 -7 -8 -4 -17
5 -15 3 -15 -10 1 -9 11 -16 16 -16 10z"/>
<path d="M3275 4160 c3 -5 -8 -24 -25 -42 l-30 -33 -29 32 c-29 31 -30 31 -37
11 -5 -16 0 -26 19 -40 14 -11 24 -25 21 -32 -3 -8 -1 -17 5 -21 7 -4 8 0 4
11 -4 12 -3 15 5 10 27 -16 10 11 -18 29 -16 11 -30 26 -30 33 0 10 4 9 16 -3
9 -9 27 -23 40 -32 20 -12 22 -19 13 -37 -9 -19 -9 -19 4 -4 8 10 17 15 20 11
4 -3 7 -2 7 4 0 6 -7 14 -17 17 -14 6 -11 11 15 37 32 31 42 59 21 59 -5 0 -8
-4 -4 -10z"/>
<path d="M3385 4134 c-17 -26 -18 -27 -31 -9 -8 10 -16 16 -19 13 -3 -3 1 -11
10 -18 8 -7 15 -17 15 -23 0 -5 -9 -2 -20 8 -19 17 -21 17 -41 -1 -12 -10 -23
-18 -25 -16 -2 1 -10 2 -16 2 -9 0 -8 -3 2 -10 9 -6 18 -6 24 0 13 13 24 12
29 -2 2 -7 2 -3 0 10 -2 12 1 22 7 22 5 0 10 -4 10 -9 0 -5 6 -11 13 -14 13
-5 73 60 64 69 -2 3 -12 -8 -22 -22z"/>
<path d="M2102 4130 c-7 -11 -19 -20 -27 -20 -8 0 -15 -5 -15 -10 0 -12 41 7
52 24 5 7 8 6 8 -3 0 -8 -8 -20 -17 -28 -16 -13 -16 -13 5 -3 23 11 27 26 14
47 -6 9 -11 7 -20 -7z"/>
<path d="M2970 4127 c-12 -21 -12 -21 6 -7 10 8 20 15 22 16 2 1 -1 4 -5 7 -5
3 -15 -4 -23 -16z"/>
<path d="M3290 4127 c-12 -21 -12 -21 6 -7 10 8 20 15 22 16 2 1 -1 4 -5 7 -5
3 -15 -4 -23 -16z"/>
<path d="M3461 4141 c-8 -5 -19 -7 -26 -5 -6 3 -22 -8 -35 -23 -18 -20 -19
-23 -4 -10 11 9 24 14 29 10 4 -5 4 -2 0 6 -6 10 -4 13 6 9 8 -3 26 0 40 8 13
7 20 13 14 13 -5 1 -16 -3 -24 -8z"/>
<path d="M2035 4130 c-8 -13 9 -20 24 -11 10 6 9 10 -3 14 -8 3 -18 2 -21 -3z"/>
<path d="M2533 4129 c16 -9 15 -12 -8 -43 -14 -18 -25 -37 -25 -41 0 -5 6 -1
13 9 12 16 14 16 26 2 8 -10 21 -14 32 -11 23 8 24 -1 3 -22 -13 -14 -17 -14
-25 -2 -5 9 -9 10 -9 2 0 -23 22 -25 42 -5 21 20 21 20 1 46 -15 18 -23 22
-31 14 -7 -7 -15 -9 -18 -5 -4 3 0 13 9 21 8 8 17 12 21 9 3 -4 6 -3 6 2 0 10
-32 34 -45 34 -5 0 -2 -4 8 -10z m37 -69 c0 -5 -4 -10 -10 -10 -5 0 -10 5 -10
10 0 6 5 10 10 10 6 0 10 -4 10 -10z"/>
<path d="M3029 4120 c27 -23 48 -27 29 -6 -7 8 -16 12 -20 9 -5 -2 -8 1 -8 6
0 6 -6 11 -12 11 -7 -1 -2 -10 11 -20z"/>
<path d="M2140 4126 c0 -2 7 -6 15 -10 8 -3 15 -1 15 4 0 6 -7 10 -15 10 -8 0
-15 -2 -15 -4z"/>
<path d="M2398 4120 c12 -5 22 -14 22 -20 0 -6 5 -8 11 -5 13 8 -19 35 -41 34
-8 0 -5 -4 8 -9z"/>
<path d="M2600 4114 c0 -8 -4 -12 -10 -9 -5 3 -10 1 -10 -4 0 -6 5 -11 11 -11
5 0 8 -3 6 -7 -3 -5 2 -15 11 -23 14 -13 15 -12 8 5 -5 11 -8 30 -7 43 0 12
-1 22 -4 22 -3 0 -5 -7 -5 -16z"/>
<path d="M2683 4122 c9 -2 15 -8 12 -13 -4 -5 -2 -9 4 -9 5 0 11 6 14 13 2 6
8 9 12 5 13 -12 -15 -37 -33 -31 -13 4 -12 2 3 -10 20 -15 20 -15 -1 -39 -22
-23 -28 -58 -11 -58 5 0 7 7 4 15 -8 19 26 60 41 51 17 -10 45 -67 37 -74 -3
-4 -10 0 -15 8 -7 11 -9 10 -7 -7 1 -18 4 -20 20 -11 23 12 38 1 17 -12 -8 -6
-33 -7 -55 -4 -22 3 -55 6 -72 6 -18 0 -33 4 -33 9 0 5 -7 9 -15 9 -8 0 -15
-4 -15 -8 0 -14 -50 -8 -59 7 -5 7 -7 29 -5 49 1 20 0 29 -3 19 -2 -9 -9 -15
-14 -12 -5 4 -9 2 -9 -4 0 -5 6 -11 13 -14 6 -2 9 -8 5 -12 -12 -13 -37 15
-31 32 5 13 2 12 -14 -3 -21 -21 -22 -24 -1 -28 30 -7 48 -19 47 -35 0 -10 -2
-11 -6 -3 -2 6 -9 10 -14 6 -5 -3 -9 0 -9 5 0 6 -5 11 -11 11 -5 0 -8 -4 -4
-9 3 -6 -12 -10 -34 -9 -21 0 -43 -2 -48 -5 -5 -3 -17 10 -28 29 -10 19 -23
34 -28 34 -6 0 -3 -8 5 -17 22 -27 33 -47 20 -39 -6 3 -14 2 -17 -4 -4 -7 -15
-2 -27 12 -15 16 -19 18 -15 6 3 -10 2 -20 -3 -23 -6 -4 -10 -1 -10 4 0 6 -7
11 -15 11 -8 0 -15 -6 -15 -12 0 -9 -3 -8 -10 2 -7 12 -12 12 -22 2 -14 -14
-58 -16 -58 -2 0 17 -28 11 -40 -7 -11 -17 -11 -17 -6 0 3 9 1 17 -4 17 -6 0
-10 -6 -10 -13 0 -7 -9 -13 -20 -14 -18 -2 -16 4 15 39 19 23 35 46 35 52 0 5
-6 2 -13 -8 -12 -16 -14 -16 -26 -2 -8 10 -21 14 -32 11 -11 -4 -19 -2 -19 3
0 6 6 12 13 15 6 2 -2 4 -20 4 l-31 0 21 -18 c12 -9 19 -20 15 -24 -4 -4 -14
0 -23 9 -26 26 -31 18 -5 -9 13 -14 18 -25 12 -25 -7 0 -12 -5 -12 -11 0 -5 4
-8 9 -4 5 3 11 0 14 -7 2 -7 3 -5 1 5 -1 9 6 27 16 39 17 21 18 21 35 5 20
-21 13 -36 -9 -18 -11 9 -15 8 -20 -5 -9 -23 -7 -31 4 -14 5 8 12 11 16 7 9
-9 -25 -47 -42 -47 -7 0 -15 6 -17 13 -3 7 -6 5 -6 -5 -1 -10 -9 -18 -18 -18
-15 0 -16 2 -3 10 8 5 10 10 4 10 -5 0 -15 -5 -20 -10 -11 -11 -23 -14 -90
-24 -400 -62 -788 -232 -987 -432 -84 -84 -129 -152 -157 -235 -21 -61 -22
-75 -16 -294 3 -126 7 -243 10 -260 3 -16 7 -68 10 -115 4 -47 9 -98 11 -115
14 -83 18 -145 30 -455 2 -69 7 -143 11 -165 l6 -41 -62 -18 c-34 -10 -96 -35
-138 -56 -194 -94 -325 -209 -393 -345 -107 -216 -64 -408 136 -610 202 -204
548 -381 955 -489 141 -37 370 -81 483 -92 29 -3 66 -7 82 -9 189 -26 757 -26
930 0 17 2 74 9 129 15 54 7 108 14 120 16 11 2 37 7 56 10 209 33 477 106
670 181 260 102 468 231 620 383 151 152 212 273 216 430 2 82 -1 103 -22 157
-47 114 -178 231 -340 304 -68 30 -241 87 -291 95 -72 11 -70 10 -63 59 4 25
9 47 11 49 2 2 38 7 79 10 191 16 311 38 415 78 352 136 543 366 543 655 0
158 -56 291 -168 396 -77 73 -144 114 -250 152 -97 34 -155 40 -382 39 l-187
-1 -7 31 c-34 160 -249 374 -501 500 -134 67 -359 143 -473 161 -76 11 -119
28 -126 47 -6 21 -36 21 -40 0 -1 -7 0 -8 3 -2 2 5 9 10 14 10 6 0 7 -5 3 -12
-4 -7 -3 -8 4 -4 7 4 12 2 12 -4 0 -5 -13 -9 -30 -8 -35 3 -37 11 -11 37 12
12 16 23 10 32 -7 12 -10 12 -21 0 -11 -11 -11 -13 1 -6 9 5 12 3 10 -4 -7
-20 -23 -16 -35 8 -6 12 -23 35 -37 51 l-26 29 21 16 c13 8 18 15 13 16 -6 0
-1 4 10 8 13 6 2 8 -35 8 -30 0 -47 -2 -37 -5z m1702 -1316 c135 -43 186 -128
151 -248 -29 -99 -121 -178 -252 -216 -117 -34 -394 -80 -394 -65 0 4 4 35 9
68 5 33 12 83 15 110 4 28 8 66 11 85 4 33 8 71 21 212 3 35 11 66 17 70 23
14 369 1 422 -16z"/>
<path d="M2835 4108 c3 -19 -23 -61 -34 -54 -16 10 -33 -11 -24 -29 7 -12 13
-14 17 -6 4 6 2 11 -5 11 -17 0 -2 13 19 16 9 2 18 8 20 13 7 20 22 11 19 -10
-1 -12 5 -24 13 -26 13 -4 13 -3 0 6 -8 5 -11 13 -7 17 4 4 13 2 19 -4 15 -15
28 -15 28 -1 0 5 -4 8 -9 5 -4 -3 -19 6 -31 19 -13 14 -18 25 -12 25 7 0 12 5
12 11 0 5 -4 8 -9 4 -5 -3 -11 0 -14 7 -2 7 -3 5 -2 -4z"/>
<path d="M3110 4120 c0 -5 7 -7 15 -4 8 4 15 8 15 10 0 2 -7 4 -15 4 -8 0 -15
-4 -15 -10z"/>
<path d="M2310 4110 c-8 -5 -12 -11 -9 -14 2 -3 11 -1 19 4 8 5 12 11 9 14 -2
3 -11 1 -19 -4z"/>
<path d="M2873 4094 c0 -28 14 -41 29 -26 7 7 4 16 -10 30 -19 19 -19 19 -19
-4z m22 -14 c3 -5 1 -10 -4 -10 -6 0 -11 5 -11 10 0 6 2 10 4 10 3 0 8 -4 11
-10z"/>
<path d="M2980 4105 c-7 -8 -16 -12 -21 -10 -15 10 -50 -39 -44 -60 13 -44 15
-65 6 -65 -5 0 -11 3 -14 8 -2 4 -2 1 0 -7 2 -7 -2 -20 -8 -27 -6 -8 -8 -14
-4 -14 4 0 15 10 25 23 10 12 22 19 26 14 4 -4 -1 -14 -12 -23 -18 -14 -17
-14 6 -3 35 17 36 18 15 33 -22 16 -28 45 -13 63 8 10 14 10 31 -2 12 -8 26
-15 32 -15 5 0 3 5 -5 10 -11 7 -11 10 -2 10 7 0 27 -15 44 -32 23 -26 27 -28
18 -10 -10 21 -9 27 10 47 22 24 19 51 -5 41 -8 -3 -25 4 -38 15 -30 23 -31
23 -47 4z m30 -4 c0 -5 9 -13 20 -16 17 -5 18 -10 9 -28 -9 -19 -7 -18 10 3
11 14 22 22 25 19 4 -3 -3 -18 -15 -33 -19 -25 -22 -25 -34 -10 -8 11 -19 15
-30 10 -10 -3 -23 -2 -30 4 -9 8 -17 6 -29 -5 -12 -13 -16 -13 -16 -3 0 30 64
61 73 36 2 -7 2 -3 0 10 -2 12 1 22 7 22 5 0 10 -4 10 -9z"/>
<path d="M3015 4070 c-3 -5 -1 -10 4 -10 6 0 11 5 11 10 0 6 -2 10 -4 10 -3 0
-8 -4 -11 -10z"/>
<path d="M2028 4097 c7 -8 9 -17 5 -20 -3 -4 -1 -7 5 -7 18 0 14 27 -4 34 -13
5 -14 4 -6 -7z"/>
<path d="M2139 4097 c-1 -7 -1 -16 0 -21 1 -5 -4 -6 -12 -3 -8 3 -13 -4 -14
-22 0 -14 1 -18 4 -8 2 9 9 15 14 12 8 -6 13 9 10 29 -1 5 5 6 14 3 8 -4 15
-2 15 2 0 14 -30 22 -31 8z"/>
<path d="M2180 4099 c0 -5 5 -7 10 -4 6 3 10 8 10 11 0 2 -4 4 -10 4 -5 0 -10
-5 -10 -11z"/>
<path d="M2380 4101 c0 -5 7 -11 15 -15 8 -3 15 -1 15 3 0 5 -7 11 -15 15 -8
3 -15 1 -15 -3z"/>
<path d="M2620 4100 c0 -6 5 -10 11 -10 5 0 7 -6 3 -12 -4 -7 -3 -10 1 -5 5 4
19 0 32 -8 25 -17 31 -11 9 10 -7 8 -16 11 -20 8 -3 -4 -6 -2 -6 4 0 6 -7 13
-15 17 -8 3 -15 1 -15 -4z"/>
<path d="M2810 4101 c0 -7 -4 -10 -9 -6 -5 3 -16 -2 -24 -10 -18 -17 -31 -20
-22 -5 3 6 1 10 -4 10 -13 0 -14 -10 -3 -28 6 -9 14 -7 30 8 14 14 22 16 22 8
0 -7 5 -5 11 5 6 10 8 21 5 24 -3 4 -6 1 -6 -6z"/>
<path d="M3085 4100 c3 -5 8 -10 11 -10 2 0 4 5 4 10 0 6 -5 10 -11 10 -5 0
-7 -4 -4 -10z"/>
<path d="M3115 4094 c-16 -17 -20 -28 -7 -20 8 5 42 -28 42 -39 0 -3 -10 -3
-22 -1 -13 3 -25 5 -28 5 -3 1 2 6 10 11 9 6 10 10 3 10 -13 0 -28 -19 -20
-26 11 -11 56 -13 62 -3 4 6 -3 21 -16 35 -12 13 -18 24 -12 24 5 0 18 -9 28
-20 10 -11 20 -18 22 -16 2 2 -7 15 -21 29 -23 23 -27 24 -41 11z"/>
<path d="M2441 4083 c3 -20 -2 -26 -11 -13 -6 9 -10 10 -10 3 0 -19 21 -27 31
-12 12 19 11 29 -1 29 -5 0 -9 -3 -9 -7z"/>
<path d="M2076 4066 c10 -8 21 -12 24 -10 5 6 -21 24 -34 24 -6 0 -1 -6 10
-14z"/>
<path d="M2163 4063 c-7 -3 -13 -9 -13 -14 0 -4 8 -5 18 -2 11 4 8 -3 -10 -22
-29 -29 -35 -45 -17 -45 5 0 8 4 4 9 -3 5 6 19 21 30 26 20 23 53 -3 44z"/>
<path d="M2630 4050 c0 -5 3 -9 8 -9 19 3 25 -2 12 -11 -9 -6 -10 -10 -3 -10
19 0 27 21 12 31 -19 12 -29 11 -29 -1z"/>
<path d="M2310 4038 c0 -4 7 -8 15 -8 8 0 15 4 15 8 0 5 -7 9 -15 9 -8 0 -15
-4 -15 -9z"/>
<path d="M2610 4030 c0 -5 5 -10 11 -10 5 0 7 5 4 10 -3 6 -8 10 -11 10 -2 0
-4 -4 -4 -10z"/>
<path d="M2815 4030 c-3 -5 -1 -10 4 -10 6 0 11 5 11 10 0 6 -2 10 -4 10 -3 0
-8 -4 -11 -10z"/>
<path d="M3170 4030 c0 -5 5 -10 11 -10 5 0 7 5 4 10 -3 6 -8 10 -11 10 -2 0
-4 -4 -4 -10z"/>
<path d="M2706 4014 c-6 -15 -4 -15 11 -3 15 12 16 12 10 -4 -4 -10 -7 -21 -7
-23 0 -3 -4 -2 -10 1 -15 9 -12 -4 4 -21 13 -12 15 -12 15 3 0 10 1 27 3 37 4
24 -17 32 -26 10z"/>
<path d="M2950 4021 c0 -5 6 -12 13 -14 9 -4 8 -6 -2 -6 -8 -1 -4 -9 12 -21
32 -25 47 -26 18 -1 -12 10 -17 21 -11 23 5 1 1 9 -10 16 -11 7 -20 8 -20 3z"/>
<path d="M3070 4021 c0 -6 5 -11 11 -11 5 0 7 -4 4 -10 -3 -6 1 -7 10 -4 9 4
15 7 13 8 -2 1 -11 8 -20 15 -12 9 -18 10 -18 2z"/>
<path d="M1996 4007 c3 -10 9 -15 12 -12 3 3 0 11 -7 18 -10 9 -11 8 -5 -6z"/>
<path d="M2310 4014 c1 -13 29 -48 34 -43 2 2 -4 15 -15 28 -10 13 -19 19 -19
15z"/>
<path d="M2895 4010 c3 -5 8 -10 11 -10 2 0 4 5 4 10 0 6 -5 10 -11 10 -5 0
-7 -4 -4 -10z"/>
<path d="M2590 3995 c0 -8 2 -15 4 -15 2 0 6 7 10 15 3 8 1 15 -4 15 -6 0 -10
-7 -10 -15z"/>
<path d="M2617 3996 c-6 -15 19 -30 34 -20 5 3 8 13 8 22 -1 15 -2 15 -6 0 -2
-10 -9 -18 -15 -18 -5 0 -8 7 -4 15 3 8 1 15 -3 15 -5 0 -11 -6 -14 -14z"/>
<path d="M2836 3995 c4 -8 8 -15 10 -15 2 0 4 7 4 15 0 8 -4 15 -10 15 -5 0
-7 -7 -4 -15z"/>
<path d="M2870 4003 c5 -2 10 -9 10 -14 0 -6 -4 -7 -10 -4 -5 3 -10 1 -10 -4
0 -6 5 -11 11 -11 5 0 7 -4 4 -10 -3 -5 -2 -10 4 -10 14 0 8 53 -7 56 -7 1 -8
0 -2 -3z"/>
<path d="M3000 4001 c0 -11 19 -25 38 -27 10 -2 8 3 -4 17 -18 20 -34 25 -34
10z"/>
<path d="M2540 3982 c0 -4 9 -8 20 -9 11 -1 20 2 20 5 0 4 -9 8 -20 9 -11 1
-20 -2 -20 -5z"/>
<path d="M1990 3970 c0 -5 5 -10 10 -10 6 0 10 5 10 10 0 6 -4 10 -10 10 -5 0
-10 -4 -10 -10z"/>
<path d="M2668 3963 c7 -3 16 -2 19 1 4 3 -2 6 -13 5 -11 0 -14 -3 -6 -6z"/>
</g>
</svg>
